<?xml version="1.0" encoding="UTF-8" standalone="no"?>
<!-- Created with Inkscape (http://www.inkscape.org/) -->

<svg
   xmlns:dc="http://purl.org/dc/elements/1.1/"
   xmlns:cc="http://creativecommons.org/ns#"
   xmlns:rdf="http://www.w3.org/1999/02/22-rdf-syntax-ns#"
   xmlns:svg="http://www.w3.org/2000/svg"
   xmlns="http://www.w3.org/2000/svg"
   xmlns:sodipodi="http://sodipodi.sourceforge.net/DTD/sodipodi-0.dtd"
   xmlns:inkscape="http://www.inkscape.org/namespaces/inkscape"
   width="416.05862mm"
   height="144.50914mm"
   viewBox="0 0 416.05862 144.50914"
   version="1.1"
   id="svg8528"
   inkscape:version="0.92.3 (2405546, 2018-03-11)"
   sodipodi:docname="GVQ.svg">
  <defs
     id="defs8522" />
  <sodipodi:namedview
     id="base"
     pagecolor="#ffffff"
     bordercolor="#666666"
     borderopacity="1.0"
     inkscape:pageopacity="0.0"
     inkscape:pageshadow="2"
     inkscape:zoom="0.35"
     inkscape:cx="956.57137"
     inkscape:cy="53.22772"
     inkscape:document-units="mm"
     inkscape:current-layer="g9084"
     showgrid="false"
     inkscape:window-width="1920"
     inkscape:window-height="1017"
     inkscape:window-x="-8"
     inkscape:window-y="-8"
     inkscape:window-maximized="1" />
  <metadata
     id="metadata8525">
    <rdf:RDF>
      <cc:Work
         rdf:about="">
        <dc:format>image/svg+xml</dc:format>
        <dc:type
           rdf:resource="http://purl.org/dc/dcmitype/StillImage" />
        <dc:title></dc:title>
      </cc:Work>
    </rdf:RDF>
  </metadata>
  <g
     inkscape:label="Layer 1"
     inkscape:groupmode="layer"
     id="layer1"
     transform="translate(270.10177,-49.589154)">
    <g
       id="g9084"
       transform="translate(176.89286,-192.76786)">
      <path
         style="fill:#000000;fill-opacity:1;stroke-width:0.26458332"
         d="m -112.82588,386.81069 c -3.09163,-0.39566 -7.21686,-1.27303 -9.17404,-1.95118 -6.34648,-2.19901 -12.88118,-6.99696 -16.79442,-12.33089 -2.57752,-3.51325 -4.80418,-8.93802 -5.62859,-13.7128 -0.52819,-3.05912 -1.3467,-4.3106 -5.55144,-8.48812 -6.1654,-6.12549 -13.25538,-10.21657 -23.83798,-13.75509 -10.45948,-3.49735 -21.83096,-5.69869 -39.09935,-7.56903 l -2.85143,-0.30884 5.36497,-3.9677 c 2.95075,-2.18223 6.84336,-5.06686 8.65027,-6.41029 l 3.28528,-2.4426 3.46159,2.56156 c 11.24479,8.32105 22.04002,12.69331 36.26992,14.68993 4.59074,0.64413 11.3633,1.00123 16.61952,0.87631 5.78752,-0.13756 6.38458,-0.28781 9.72137,-2.44637 7.89228,-5.10548 12.18486,-6.45489 21.41641,-6.73239 l 5.68854,-0.17099 3.56256,-2.04269 c 1.959429,-1.12348 3.626299,-2.04043 3.704169,-2.03767 0.0779,0.003 1.72125,2.24331 3.65191,4.97901 2.99162,4.23901 3.98616,5.42092 6.73063,7.99863 1.77115,1.66355 3.92419,3.97383 4.78451,5.13396 4.50924,6.08058 6.76169,13.91752 5.99821,20.86943 -1.67357,15.23864 -15.04299,26.82543 -31.474699,27.27796 -1.96453,0.0541 -3.98859,0.045 -4.49791,-0.0201 z m 4.6302,-6.72184 c 4.96888,-0.70644 9.317229,-2.4664 13.057799,-5.285 8.24394,-6.21199 11.15872,-16.50904 7.4209,-26.21567 -1.61428,-4.19205 -5.4215,-8.84855 -9.49822,-11.617 -7.360999,-4.99876 -17.571719,-6.13518 -25.797149,-2.87113 -7.48456,2.97007 -12.93333,9.09266 -14.71038,16.52953 -0.74321,3.11024 -0.61161,8.23975 0.28427,11.07995 1.82972,5.80089 5.55154,10.67282 10.72195,14.03526 3.77997,2.45821 5.45523,3.0709 11.1125,4.06415 3.36225,0.59031 4.83402,0.64592 7.40833,0.27991 z m -121.04688,-54.93922 c -4.87495,-0.79498 -35.23589,-5.78721 -67.46875,-11.09386 -32.23285,-5.30664 -62.65332,-10.29905 -67.60103,-11.09423 -4.94771,-0.79518 -9.7995,-1.57536 -10.78177,-1.73374 l -1.78594,-0.28795 0.003,-0.96828 c 0.002,-0.53256 0.0794,-1.43127 0.17285,-1.99713 l 0.16995,-1.02885 26.48391,0.17518 c 14.56615,0.0964 55.17796,0.2996 90.24848,0.45167 58.17334,0.25224 63.99645,0.23914 66.4088,-0.14937 3.47665,-0.55991 5.50962,-1.08408 13.89225,-3.58194 15.0178,-4.47499 18.27403,-5.14408 29.63333,-6.08899 14.74722,-1.22672 23.3185,-2.81938 28.4634,-5.28886 l 2.13736,-1.02591 0.9774,-2.30892 c 3.84667,-9.08714 13.40665,-16.07949 24.513509,-17.92965 4.35063,-0.72472 7.20109,-0.80369 11.1125,-0.30786 3.7778,0.47889 7.5125,1.18349 10.00448,1.88747 3.10123,0.87611 8.96869,4.03922 12.94273,6.97736 l 0.81976,0.60607 4.45452,-3.0059 c 17.08888,-11.53147 21.1433,-14.20545 21.29417,-14.04393 0.39251,0.42024 2.35111,7.01024 2.20374,7.41487 -0.0883,0.24254 -4.80518,4.4184 -10.48192,9.27969 -7.3516,6.29555 -10.28321,8.96003 -10.18884,9.26041 0.0729,0.23195 0.60955,1.55374 1.19261,2.93732 6.30373,14.95843 -1.74945,30.56516 -18.7475,36.33197 -5.33797,1.81097 -12.55056,2.4662 -18.28191,1.66084 -11.23294,-1.57844 -20.300129,-6.53868 -26.650419,-14.57924 -1.66622,-2.10973 -3.68155,-5.6415 -4.45019,-7.79876 -0.39015,-1.09496 -0.78409,-2.07889 -0.87545,-2.18651 -0.25662,-0.30232 -9.92585,-1.46229 -15.09411,-1.81076 -5.50238,-0.37101 -14.53722,-0.18137 -19.44688,0.40819 -21.18968,2.54447 -40.66753,11.73831 -62.91008,29.69452 -1.85834,1.50023 -3.40616,2.71482 -3.43958,2.69909 -0.0334,-0.0157 -4.04935,-0.67904 -8.9243,-1.47401 z m 12.7,-7.19023 c 0,-0.34727 -3.0804,-8.07613 -3.71307,-9.31627 l -0.55935,-1.09641 -0.63957,0.60085 c -3.64407,3.42342 -1.00311,9.95812 4.05209,10.02639 0.47294,0.006 0.8599,-0.0902 0.8599,-0.21456 z m 4.08406,-2.37308 c 1.58551,-2.24972 1.14792,-5.76512 -0.94013,-7.55241 -1.20743,-1.03352 -4.07595,-1.98673 -4.55053,-1.51215 -0.4973,0.4973 3.75546,10.48304 4.37717,10.27786 0.1852,-0.0611 0.68627,-0.6071 1.11349,-1.2133 z m 131.923609,-0.69765 c 5.21898,-0.44089 10.9819,-3.25921 14.99391,-7.33269 2.32092,-2.35646 3.30218,-3.69969 4.60142,-6.29867 1.66955,-3.33977 2.22197,-5.88195 2.21475,-10.19153 -0.007,-4.4392 -0.55512,-6.74893 -2.51106,-10.59064 -2.04544,-4.01753 -4.82594,-7.19431 -8.4315,-9.63314 -14.68961,-9.93625 -34.831519,-3.25443 -39.597779,13.13604 -3.68811,12.68283 4.37753,26.17421 18.002809,30.11325 2.19532,0.63467 6.74251,1.18878 8.33437,1.01562 0.3638,-0.0396 1.44068,-0.13779 2.39308,-0.21824 z M -297.89624,287.07324 c -2.0028,-3.71896 -8.15781,-5.64788 -14.65693,-4.59332 -0.92766,0.15052 -1.75572,0.20461 -1.84013,0.12019 -0.0844,-0.0844 -0.025,-0.49378 0.13196,-0.9097 0.26932,-0.71352 0.22075,-0.80181 -0.86039,-1.56387 -7.10347,-5.007 -8.33099,-24.49725 -2.06763,-32.82938 2.11491,-2.81346 5.66728,-4.53223 8.54195,-4.13292 1.92764,0.26775 4.33843,1.5757 5.70418,3.09475 6.19407,6.8893 6.50095,24.08575 0.56752,31.80206 -0.54251,0.70553 -0.94847,1.31402 -0.90214,1.35221 0.0463,0.0382 0.9396,0.27551 1.98504,0.52739 1.04544,0.25188 2.08982,0.59618 2.32085,0.76512 0.27538,0.20136 0.63868,1.49127 1.05478,3.74503 0.3491,1.89082 0.60918,3.46341 0.57796,3.49463 -0.0312,0.0312 -0.28188,-0.36127 -0.55702,-0.87219 z m -10.33601,-8.42099 c 1.20558,-0.50373 2.5701,-1.99775 3.43174,-3.75744 2.64893,-5.40982 2.97957,-16.17659 0.69714,-22.70164 -1.95665,-5.59369 -5.71836,-7.57837 -8.62449,-4.55027 -2.7931,2.91031 -4.32872,9.43584 -3.99219,16.96455 0.4584,10.25501 3.90572,15.95931 8.4878,14.0448 z m -84.97931,3.37693 c -1.74596,-0.61823 -3.62877,-2.49317 -4.69596,-4.67632 -1.56514,-3.20183 -1.85849,-4.75419 -1.85849,-9.83499 0,-5.08081 0.29335,-6.63317 1.85849,-9.835 1.53517,-3.1405 4.29258,-5.12038 7.11873,-5.11138 1.17037,0.004 3.36016,1.10309 4.21078,2.11399 1.66494,1.97867 2.85802,5.42314 3.20762,9.26051 l 0.18079,1.98437 -6.10564,2.11299 -6.10564,2.11299 v 1.08584 c 0,2.76367 1.57865,6.71781 3.07289,7.69688 2.52092,1.65177 5.39378,-0.28712 5.39378,-3.64026 0,-1.26455 -0.0884,-1.45664 -1.16575,-2.53401 -0.64115,-0.64116 -0.96858,-1.10852 -0.7276,-1.03857 0.24098,0.0699 1.65853,0.20882 3.15012,0.3086 1.72117,0.11514 2.71125,0.2898 2.70998,0.47807 -10e-4,0.16315 -0.12345,1.07055 -0.27188,2.01644 -0.89041,5.67399 -5.44819,9.10178 -9.97222,7.49985 z m 0.85339,-15.62459 c 1.16417,-0.4971 2.8647,-1.32117 3.77896,-1.83128 1.87247,-1.04474 1.75244,-0.54753 1.08241,-4.48367 -0.54276,-3.18841 -2.33209,-5.00583 -4.29172,-4.3591 -2.21642,0.73149 -3.45599,3.72545 -3.78782,9.14881 l -0.17335,2.8332 0.63742,-0.20208 c 0.35059,-0.11114 1.58993,-0.60879 2.7541,-1.10588 z m 133.86863,15.78064 c -1.29642,-0.37698 -2.89842,-1.94018 -3.55682,-3.47067 -0.75293,-1.75024 -1.0053,-5.11662 -0.5342,-7.12572 0.76785,-3.27465 2.61726,-5.92714 5.15987,-7.40048 1.12609,-0.65252 1.60833,-0.76694 3.24115,-0.76905 l 1.91823,-0.002 v -1.70677 c 0,-3.50716 -1.04835,-5.8772 -2.64583,-5.98153 -1.40613,-0.0918 -1.89855,0.0378 -2.52557,0.66481 -0.54746,0.54745 -0.64943,0.90266 -0.64943,2.2621 0,0.92806 0.17136,1.94405 0.40366,2.39327 0.22202,0.42934 0.32691,0.78062 0.23308,0.78062 -0.0938,0 -1.21618,-0.66284 -2.49411,-1.47297 l -2.32351,-1.47297 0.26798,-0.97443 c 0.43287,-1.57401 1.16898,-2.81787 2.20691,-3.72918 1.12191,-0.98506 1.62775,-1.20439 3.36675,-1.4598 2.88239,-0.42335 5.74292,0.91285 6.89312,3.21989 1.23629,2.4797 1.32428,3.33929 1.34759,13.1655 0.0243,10.24978 0.0531,10.44602 1.73733,11.86324 l 0.86284,0.72603 -2.34797,-0.0769 -2.34798,-0.0769 -0.72167,-1.32291 c -0.39691,-0.72761 -0.72444,-1.17823 -0.72784,-1.0014 -0.0113,0.58833 -1.70669,2.26839 -2.78204,2.75691 -1.12909,0.51293 -2.66508,0.59466 -3.98154,0.21185 z m 4.41251,-3.70579 c 1.32298,-1.54716 1.68343,-3.3277 1.68343,-8.31574 v -4.49792 l -1.33234,-0.078 c -1.04354,-0.0611 -1.53102,0.0558 -2.24896,0.53941 -1.72783,1.16383 -2.88876,4.22019 -2.89686,7.62651 -0.0113,4.73248 2.59361,7.29986 4.79473,4.72575 z m 60.43996,3.46982 c -4.38045,-1.76509 -6.75585,-7.55738 -6.42991,-15.67902 0.1589,-3.95945 0.57928,-5.83851 1.92115,-8.58737 1.53534,-3.14519 4.28087,-5.11397 7.13164,-5.11397 1.1211,0 3.40539,1.17754 4.27432,2.20339 1.51062,1.78341 2.74591,5.50174 3.13553,9.43828 l 0.17021,1.71979 -6.13438,2.11667 -6.1344,2.11667 0.15476,1.85208 c 0.37039,4.43257 2.41166,7.54063 4.95242,7.54063 1.88863,0 3.42193,-1.89898 3.42193,-4.23803 0,-1.28769 -0.0841,-1.47198 -1.16575,-2.55359 -0.64116,-0.64116 -0.96858,-1.10852 -0.7276,-1.03857 0.24098,0.0699 1.66058,0.20897 3.15467,0.30892 l 2.71653,0.18175 -0.15941,1.35466 c -0.43149,3.66629 -2.24911,6.80529 -4.65861,8.04526 -1.70967,0.87983 -3.93774,1.01156 -5.6231,0.33245 z m 1.63324,-15.81728 c 1.49083,-0.65075 3.16759,-1.51421 3.72612,-1.91881 l 1.01551,-0.73563 -0.22971,-1.92329 c -0.45068,-3.77352 -1.82074,-5.91618 -3.78293,-5.91618 -2.56653,0 -4.20249,3.31001 -4.54661,9.19904 l -0.16803,2.8755 0.63753,-0.19872 c 0.35064,-0.1093 1.85729,-0.73116 3.34812,-1.38191 z m -169.39809,15.822 c -4.69896,-1.14903 -7.87595,-6.98108 -8.58945,-15.76778 -0.87143,-10.73149 2.19387,-19.07812 8.07364,-21.98405 1.74417,-0.86202 2.16579,-0.96261 4.01057,-0.95685 2.50581,0.008 4.50733,0.69215 6.15873,2.10569 2.63397,2.25458 3.43751,5.04179 1.92203,6.66688 -0.78957,0.84668 -3.77622,2.81403 -3.76094,2.47739 0.005,-0.11361 0.17953,-0.50422 0.3875,-0.86802 0.60719,-1.06217 0.48529,-2.89368 -0.2971,-4.46374 -1.6844,-3.38015 -5.61809,-3.88184 -8.18232,-1.04355 -3.52845,3.90557 -5.0471,14.10402 -3.32192,22.30833 0.90338,4.29613 2.24939,6.96731 4.07028,8.07756 1.64256,1.00152 4.73739,0.46163 6.92688,-1.20837 l 0.97807,-0.74601 -0.087,-6.10429 c -0.0976,-6.85222 -0.27975,-7.6375 -2.04429,-8.81279 l -0.89903,-0.59881 5.00007,9.8e-4 5.00006,9.8e-4 -0.84705,0.51648 c -1.68992,1.0304 -1.78971,1.51054 -1.88102,9.05078 -0.0949,7.83822 0.0239,8.59811 1.57608,10.07608 l 1.04198,0.99219 h -2.90235 c -2.76307,0 -2.92677,-0.031 -3.41107,-0.64673 l -0.50871,-0.64672 -1.56101,0.6304 c -1.49264,0.60279 -4.40917,1.21625 -5.52976,1.16313 -0.29105,-0.0138 -0.88636,-0.11243 -1.32292,-0.21918 z m 139.4632,-0.27067 -4.20553,-0.14253 0.98084,-0.46658 c 0.72407,-0.34445 1.12794,-0.79466 1.54277,-1.71979 0.48991,-1.0926 0.5914,-2.01617 0.7919,-7.20633 0.30161,-7.80763 0.11769,-23.89702 -0.28756,-25.15507 -0.41505,-1.28851 -1.32516,-2.07286 -2.67201,-2.30278 -1.09431,-0.18681 -1.01627,-0.22249 2.63123,-1.20284 2.06745,-0.55568 3.89547,-1.0628 4.06228,-1.12694 0.22404,-0.0862 0.28026,1.43844 0.21518,5.83508 l -0.0881,5.9517 1.50788,-0.69033 c 3.68734,-1.68812 8.07033,-0.39313 10.4794,3.09623 2.04304,2.95921 2.73297,6.06303 2.53911,11.42291 -0.25736,7.11563 -2.28553,11.54207 -6.1029,13.31944 -1.49616,0.69662 -1.88868,0.70998 -11.3945,0.38783 z m 9.65651,-2.73108 c 1.18488,-0.79629 2.44264,-2.93898 3.02396,-5.15156 0.67618,-2.5736 0.84135,-9.5849 0.28746,-12.2015 -0.86344,-4.07885 -2.87624,-6.17277 -5.93365,-6.17277 -0.99826,0 -2.01139,0.19327 -2.76831,0.52809 -1.14608,0.50697 -1.2015,0.58384 -1.38552,1.9218 -0.19951,1.4506 0.0596,19.42489 0.29801,20.6719 0.16533,0.8648 0.41461,0.93858 3.30305,0.97753 1.9618,0.0265 2.40007,-0.0527 3.175,-0.57349 z m -229.39373,2.11627 c 1.46043,-0.98211 1.83549,-2.1435 2.10316,-6.5126 0.27608,-4.50647 0.33134,-23.6034 0.077,-26.61223 l -0.17407,-2.05924 -2.00874,0.14011 c -2.34062,0.16326 -4.05274,0.77638 -4.79182,1.71597 l -0.52422,0.66642 3e-5,-2.74766 3e-5,-2.74766 h 9.65729 9.65728 l -0.0209,3.04271 c -0.0154,2.23635 -0.0879,2.86741 -0.27358,2.38125 -0.13897,-0.3638 -0.54007,-0.87069 -0.89134,-1.12641 -0.90599,-0.65956 -3.61136,-1.29845 -5.09537,-1.2033 l -1.25947,0.0808 v 16.13959 16.13958 l 0.66146,1.16432 c 0.37819,0.66569 1.05627,1.37386 1.58337,1.65364 l 0.92192,0.48934 h -5.26052 -5.26052 z m 16.62357,0.14114 c 0.54029,-0.2753 1.1275,-0.89112 1.45027,-1.52094 0.49111,-0.95827 0.56306,-1.77127 0.76102,-8.59896 0.27185,-9.3763 0.0952,-22.79111 -0.31762,-24.12206 -0.47056,-1.51704 -1.07502,-2.08563 -2.40738,-2.26452 -1.16161,-0.15596 -1.10881,-0.18166 2.38395,-1.16042 1.96453,-0.55051 3.82047,-1.06398 4.12431,-1.14104 0.55175,-0.13993 0.55229,-0.1317 0.43431,6.6672 l -0.11813,6.8073 1.1532,-1.09358 c 1.37263,-1.30167 1.87153,-1.57647 3.54177,-1.95077 1.93654,-0.43399 3.76321,0.0409 5.27454,1.37121 2.52149,2.2195 3.30985,5.08078 3.33401,12.10036 0.009,2.70524 0.10674,6.59698 0.21651,8.64831 0.22245,4.15726 0.53178,5.04466 2.1351,6.12513 l 0.88472,0.59622 h -4.67854 -4.67854 l 0.91014,-0.79912 c 0.65151,-0.57204 1.00152,-1.18001 1.2317,-2.13949 0.42961,-1.79083 0.42887,-15.85407 -10e-4,-18.22806 -0.63794,-3.52338 -1.69743,-4.86074 -3.82528,-4.82857 -2.01495,0.0305 -3.6038,1.2605 -4.69914,3.63794 -0.59786,1.29766 -0.60949,1.49214 -0.60891,10.18646 5.3e-4,9.70306 0.0796,10.31182 1.49258,11.50072 l 0.79639,0.67012 -4.84894,-5.3e-4 c -4.78631,-5.3e-4 -4.83722,-0.006 -3.94107,-0.46302 z m 86.38677,-0.0515 c 2.19369,-1.44609 2.11921,-2.54853 -1.44898,-21.44545 -1.1678,-6.18464 -2.30837,-11.89964 -2.53458,-12.7 -0.47395,-1.67686 -1.39072,-3.00194 -2.57768,-3.72571 l -0.82925,-0.50565 5.15938,0.009 c 4.55207,0.008 5.0633,0.0512 4.34318,0.36474 -1.03478,0.45054 -1.9012,1.54468 -2.11169,2.66669 -0.10118,0.53931 0.55284,5.47219 1.71283,12.91885 1.03208,6.62552 1.87651,12.19382 1.87651,12.37399 0,0.93911 0.32348,-0.23826 0.6691,-2.43532 0.21497,-1.36657 0.61641,-3.13951 0.89207,-3.93988 0.27566,-0.80036 0.57947,-2.40771 0.67513,-3.57187 0.0957,-1.16417 0.53475,-3.90261 0.97576,-6.08542 0.63259,-3.13105 0.79881,-4.62436 0.78751,-7.07479 -0.0149,-3.23617 -0.31132,-4.37394 -1.28758,-4.94256 -0.32546,-0.18956 1.10919,-0.2686 4.82864,-0.26604 l 5.29166,0.004 -0.97089,0.51287 c -0.53399,0.28208 -1.22477,0.8694 -1.53506,1.30516 -1.11868,1.57105 -2.74649,7.26209 -3.71132,12.97525 -0.30719,1.81901 -0.7832,4.20026 -1.0578,5.29167 -0.2746,1.09141 -0.81597,3.77031 -1.20304,5.95312 -0.57851,3.26243 -0.68425,4.53381 -0.59416,7.14375 0.12116,3.50995 0.47699,4.59264 1.73341,5.27437 0.66137,0.35885 0.26464,0.39376 -4.56739,0.40184 l -5.29166,0.009 0.7759,-0.51149 z m 54.33948,-0.021 c 1.85097,-1.12851 2.14571,-3.34128 2.34275,-17.58802 0.20716,-14.97813 -0.17941,-18.28966 -2.34803,-20.11444 l -0.77884,-0.65535 h 4.03352 c 2.21844,0 4.78185,0.13032 5.69647,0.28959 4.17468,0.72699 6.66164,4.11135 6.3958,8.70364 -0.13799,2.38368 -0.86259,3.88535 -2.58706,5.36142 l -1.05767,0.90534 1.28734,0.83417 c 1.83551,1.18936 3.11813,2.71857 4.22597,5.0384 l 0.96393,2.01848 v 3.70416 c 0,3.61482 -0.0203,3.74708 -0.84269,5.48305 -1.5325,3.23503 -4.4082,5.57278 -7.70314,6.26215 -0.77115,0.16134 -3.45005,0.2929 -5.95313,0.29236 l -4.55104,-0.001 0.87582,-0.53397 z m 10.25352,-3.56098 c 1.35419,-0.7936 2.38677,-1.97854 3.11447,-3.57401 0.81809,-1.79364 0.80176,-6.68479 -0.0292,-8.75423 -1.09853,-2.73572 -3.6125,-4.94443 -5.77741,-5.0759 l -1.02884,-0.0625 -0.088,1.98438 c -0.0484,1.0914 -0.005,5.2431 0.0971,9.22599 l 0.18507,7.24162 1.20439,-0.16508 c 0.66242,-0.0908 1.7075,-0.45992 2.32242,-0.82029 z m -1.78963,-21.14565 c 3.14514,-1.63642 3.66267,-7.1401 0.89074,-9.47252 -0.84201,-0.70851 -2.31905,-1.1976 -2.6426,-0.87504 -0.0987,0.0984 -0.21822,2.55054 -0.26552,5.44913 l -0.086,5.27017 h 0.69446 c 0.38195,0 1.01596,-0.16728 1.40892,-0.37174 z m 33.78738,24.74043 c 0.58208,-0.26979 1.22158,-0.76489 1.42109,-1.10023 0.58571,-0.98442 0.87643,-6.4591 0.75792,-14.27264 -0.0786,-5.17988 -0.21316,-7.56725 -0.4672,-8.28688 -0.39498,-1.11887 -1.61435,-2.29645 -2.37796,-2.29645 -0.27129,0 -0.5526,-0.096 -0.62513,-0.21339 -0.10715,-0.17337 6.18418,-2.20234 6.74605,-2.17562 0.0897,0.004 0.11596,0.87096 0.0583,1.92599 -0.0888,1.62472 -0.053,1.84047 0.23377,1.41002 0.75511,-1.13351 2.19737,-2.59281 2.94426,-2.97903 1.73593,-0.89769 4.34938,-0.33947 5.87732,1.25536 l 0.75344,0.78641 -0.49607,0.85503 c -0.27283,0.47026 -0.94955,1.56939 -1.50382,2.44252 l -1.00776,1.5875 -0.006,-1.15064 c -0.007,-1.40454 -0.68862,-2.92651 -1.43472,-3.20251 -1.37097,-0.50715 -3.44629,1.29235 -4.29229,3.72182 -0.44736,1.28468 -0.49527,2.28528 -0.48635,10.15633 0.0108,9.54767 0.0961,10.2012 1.48327,11.36843 l 0.79639,0.67012 -4.71665,-0.006 -4.71666,-0.006 1.05833,-0.49051 z m 62.99568,-10e-4 c 1.90857,-0.86678 2.0088,-1.40149 2.16212,-11.53504 0.15251,-10.07931 -0.0364,-12.05861 -1.28661,-13.48254 -0.42027,-0.47865 -1.15194,-0.95599 -1.62597,-1.06076 -1.00682,-0.22254 -1.10233,-0.17809 3.15666,-1.46889 l 3.29983,-1.00011 -0.16925,1.23055 c -0.0931,0.6768 -0.0506,1.52802 0.0943,1.89159 0.14499,0.36357 0.27117,0.51256 0.28038,0.33107 0.0241,-0.47536 1.84063,-2.42076 2.64271,-2.83029 1.91968,-0.98015 3.92054,-0.68526 5.59115,0.82403 0.57383,0.51843 1.04333,1.06285 1.04333,1.20983 0,0.14697 -0.62508,1.2874 -1.38906,2.53428 l -1.38907,2.26706 -0.15721,-1.44713 c -0.18748,-1.72555 -0.59796,-2.57853 -1.38007,-2.86785 -1.3893,-0.51394 -3.47461,1.3049 -4.3408,3.78613 -0.41738,1.19562 -0.47012,2.36076 -0.45638,10.08308 0.0169,9.53963 0.10451,10.21301 1.47764,11.36842 l 0.7964,0.67012 -4.71668,-0.006 -4.71664,-0.006 1.08317,-0.49193 z"
         id="path9088"
         inkscape:connector-curvature="0" />
    </g>
  </g>
</svg>
